<?xml version="1.0" encoding="UTF-8" standalone="no"?>
<svg
   version="1.1"
   viewBox="0 0 512 512"
   enable-background="new 0 0 512 512"
   id="svg10"
   sodipodi:docname="download.svg"
   inkscape:version="1.1 (c68e22c387, 2021-05-23)"
   xmlns:inkscape="http://www.inkscape.org/namespaces/inkscape"
   xmlns:sodipodi="http://sodipodi.sourceforge.net/DTD/sodipodi-0.dtd"
   xmlns="http://www.w3.org/2000/svg"
   xmlns:svg="http://www.w3.org/2000/svg">
  <defs
     id="defs14" />
  <sodipodi:namedview
     id="namedview12"
     pagecolor="#ffffff"
     bordercolor="#666666"
     borderopacity="1.0"
     inkscape:pageshadow="2"
     inkscape:pageopacity="0.0"
     inkscape:pagecheckerboard="0"
     showgrid="false"
     inkscape:zoom="0.56761894"
     inkscape:cx="367.3239"
     inkscape:cy="27.307052"
     inkscape:window-width="1920"
     inkscape:window-height="1025"
     inkscape:window-x="0"
     inkscape:window-y="25"
     inkscape:window-maximized="1"
     inkscape:current-layer="svg10" />
  <g
     id="g8"
     style="fill:#000000">
    <g
       id="g6"
       style="fill:#000000">
      <path
         d="M480.6,341.4c-11.3,0-20.4,9.1-20.4,20.4v98.4H51.8v-98.4c0-11.3-9.1-20.4-20.4-20.4c-11.3,0-20.4,9.1-20.4,20.4v118.8    c0,11.3,9.1,20.4,20.4,20.4h449.2c11.3,0,20.4-9.1,20.4-20.4V361.8C501,350.5,491.9,341.4,480.6,341.4z"
         id="path2"
         style="fill:#000000" />
      <path
         d="m241,365.6c11.5,11.6 25.6,5.2 29.9,0l117.3-126.2c7.7-8.3 7.2-21.2-1.1-28.9-8.3-7.7-21.2-7.2-28.8,1.1l-81.9,88.1v-265.2c0-11.3-9.1-20.4-20.4-20.4-11.3,0-20.4,9.1-20.4,20.4v265.3l-81.9-88.1c-7.7-8.3-20.6-8.7-28.9-1.1-8.3,7.7-8.7,20.6-1.1,28.9l117.3,126.1z"
         id="path4"
         style="fill:#000000" />
    </g>
  </g>
</svg>
